<?xml version="1.0" standalone="no"?>
<!DOCTYPE svg PUBLIC "-//W3C//DTD SVG 20010904//EN"
 "http://www.w3.org/TR/2001/REC-SVG-20010904/DTD/svg10.dtd">
<svg version="1.0" xmlns="http://www.w3.org/2000/svg"
 width="512.000000pt" height="512.000000pt" viewBox="0 0 512.000000 512.000000"
 preserveAspectRatio="xMidYMid meet">
<metadata>
Created by potrace 1.14, written by Peter Selinger 2001-2017
</metadata>
<g transform="translate(0.000000,512.000000) scale(0.100000,-0.100000)"
fill="#000000" stroke="none">
<path d="M2350 4578 c-317 -50 -516 -132 -758 -311 -146 -108 -285 -251 -403
-414 -205 -283 -365 -641 -448 -1003 -12 -52 -27 -113 -32 -135 -5 -22 -10
-52 -11 -67 l-2 -26 -133 2 c-73 2 -154 0 -180 -5 -26 -4 -66 -11 -88 -14
-105 -18 -219 -81 -262 -146 -59 -89 -27 -229 82 -364 136 -168 359 -325 525
-372 53 -14 60 -19 65 -47 11 -56 68 -210 102 -274 121 -232 310 -407 553
-512 82 -36 246 -93 298 -105 27 -6 32 -10 26 -27 -25 -80 23 -181 102 -214
47 -20 421 -20 467 0 43 18 86 65 102 112 l13 39 196 1 c193 0 196 0 196 -21
0 -36 52 -104 96 -125 36 -18 62 -20 244 -20 182 0 208 2 244 20 43 20 95 87
97 125 3 43 2 61 -5 82 -6 19 -2 23 36 33 479 122 777 378 913 786 19 58 35
110 35 117 0 7 33 23 74 35 133 42 300 149 424 274 77 77 81 81 124 143 155
225 69 401 -227 461 -63 13 -115 17 -245 18 l-144 1 -7 40 c-15 86 -19 103
-44 205 -124 505 -371 958 -689 1264 -69 66 -246 206 -262 206 -4 0 -15 6 -23
14 -25 22 -178 99 -256 129 -194 74 -368 105 -585 104 -85 0 -180 -4 -210 -9z"/>
</g>
</svg>
